<!-- Generated by IcoMoon.io -->
<svg version="1.1" xmlns="http://www.w3.org/2000/svg" width="28" height="32" viewBox="0 0 28 32">
<title>yaco</title>
<path d="M4.085 0l4.771 4.517-8.856-0.005v21.915h23.149v-8.379l4.766 4.512v-22.559h-23.83zM22.939 17.517l-13.528-12.807h13.528v12.807zM18.739 23.221h-15.076v-14.739h1.066v13.741h14.010v0.998zM7.223 29.344h0.465l-0.811 1.529v0.891h-0.422v-0.891l-0.813-1.529h0.467l0.557 1.147 0.557-1.147zM7.923 31.764l0.196-0.563h0.938l0.198 0.563h0.439l-0.916-2.42h-0.377l-0.914 2.42h0.437zM8.588 29.858l0.351 1.004h-0.701l0.351-1.004zM10.805 30.804c0.061-0.094 0.181-0.206 0.361-0.334-0.094-0.119-0.16-0.219-0.198-0.303-0.037-0.083-0.055-0.163-0.055-0.241 0-0.189 0.058-0.339 0.173-0.449 0.115-0.111 0.27-0.166 0.465-0.166 0.176 0 0.32 0.052 0.432 0.156 0.113 0.103 0.17 0.231 0.17 0.384 0 0.101-0.025 0.194-0.076 0.279-0.051 0.084-0.135 0.168-0.251 0.253l-0.165 0.12 0.467 0.552c0.068-0.133 0.101-0.281 0.101-0.444h0.351c0 0.298-0.070 0.542-0.209 0.733l0.356 0.421h-0.469l-0.136-0.161c-0.173 0.13-0.379 0.194-0.618 0.194s-0.431-0.063-0.575-0.189c-0.143-0.127-0.214-0.293-0.214-0.497 0-0.112 0.030-0.214 0.091-0.307zM11.897 31.339l-0.529-0.623-0.052 0.037c-0.133 0.101-0.2 0.216-0.2 0.346 0 0.112 0.036 0.203 0.108 0.273s0.168 0.105 0.289 0.105c0.136 0 0.264-0.045 0.382-0.136zM11.463 30.267l0.184-0.126 0.052-0.042c0.069-0.061 0.103-0.139 0.103-0.234 0-0.063-0.024-0.117-0.072-0.161-0.048-0.045-0.108-0.068-0.181-0.068-0.079 0-0.141 0.027-0.188 0.080s-0.070 0.12-0.070 0.201c0 0.093 0.057 0.21 0.171 0.351zM15.403 31.581c-0.166 0.144-0.387 0.216-0.663 0.216-0.193 0-0.363-0.045-0.51-0.136-0.146-0.092-0.259-0.222-0.339-0.391s-0.121-0.364-0.125-0.587v-0.226c0-0.228 0.040-0.429 0.121-0.603s0.197-0.308 0.347-0.402c0.152-0.094 0.327-0.141 0.525-0.141 0.267 0 0.482 0.073 0.645 0.218s0.258 0.35 0.284 0.615h-0.419c-0.020-0.174-0.071-0.299-0.153-0.376-0.081-0.078-0.2-0.116-0.357-0.116-0.183 0-0.324 0.067-0.422 0.201-0.098 0.133-0.147 0.329-0.15 0.587v0.214c0 0.262 0.046 0.461 0.14 0.598s0.232 0.206 0.412 0.206c0.165 0 0.289-0.037 0.372-0.111s0.136-0.198 0.158-0.371h0.419c-0.024 0.258-0.12 0.46-0.286 0.605zM17.875 31.242c-0.082 0.178-0.2 0.316-0.352 0.412-0.152 0.095-0.327 0.143-0.525 0.143-0.196 0-0.371-0.048-0.525-0.143-0.153-0.096-0.272-0.233-0.356-0.411-0.083-0.177-0.125-0.382-0.126-0.613v-0.136c0-0.236 0.042-0.444 0.125-0.625 0.084-0.181 0.202-0.319 0.354-0.414 0.153-0.096 0.328-0.145 0.525-0.145s0.372 0.048 0.524 0.143c0.153 0.094 0.271 0.23 0.354 0.409s0.125 0.384 0.126 0.62v0.135c0 0.237-0.041 0.445-0.123 0.625zM17.424 29.874c-0.101-0.143-0.244-0.214-0.43-0.214-0.182 0-0.324 0.072-0.427 0.214-0.102 0.142-0.154 0.343-0.156 0.603v0.14c0 0.266 0.052 0.472 0.155 0.617 0.104 0.145 0.248 0.218 0.432 0.218 0.186 0 0.329-0.071 0.429-0.213 0.101-0.142 0.151-0.349 0.151-0.622v-0.126c0-0.268-0.051-0.474-0.153-0.617z"></path>
</svg>
